<svg width="6.35mm" height="6.35mm" version="1.1" viewBox="0 0 6.3500004 6.3500004" xmlns="http://www.w3.org/2000/svg">
	<g transform="translate(-90.344 -152.68)">
		<g>
			<path transform="matrix(.019502 .0025567 -.0025567 .019502 92.088 153.62)" d="m250.83 147.39-79.055 103.03-128.75 16.95-103.03-79.055-16.95-128.75 79.055-103.03 128.75-16.95 103.03 79.055z" fill="#df5665" stroke="#a11316" stroke-width="9.2586"/>
			<text x="91.746986" y="154.12845" fill="#000000" font-family="sans-serif" font-size="10.583px" letter-spacing="0px" stroke-width=".26458" word-spacing="0px" style="line-height:1.25" xml:space="preserve"><tspan x="91.746986" y="163.49222" stroke-width=".26458"/></text>
			<text x="91.897324" y="155.98262" fill="#000000" font-family="sans-serif" font-size="10.583px" letter-spacing="0px" stroke-width=".26458" word-spacing="0px" style="line-height:1.25" xml:space="preserve"><tspan x="91.897324" y="165.34639" stroke-width=".26458"/></text>
		</g>
		<g transform="scale(.85754 1.1661)" fill="#fff" fill-opacity=".86408" stroke-width=".43008" style="font-feature-settings:normal;font-variant-caps:normal;font-variant-ligatures:normal;font-variant-numeric:normal" aria-label="STOP">
			<path d="m106.97 132.87v0.35391q-0.13775-0.0616-0.26879-0.093t-0.24752-0.0314q-0.15455 0-0.22847 0.0426-0.0739 0.0426-0.0739 0.13216 0 0.0672 0.0493 0.10528 0.0504 0.037 0.18144 0.0638l0.18367 0.037q0.27888 0.056 0.39647 0.17023 0.1176 0.11424 0.1176 0.3248 0 0.27663-0.16464 0.41215-0.16351 0.13439-0.50063 0.13439-0.15903 0-0.31919-0.0302t-0.32031-0.0896v-0.364q0.16015 0.0851 0.30911 0.1288 0.15008 0.0426 0.28896 0.0426 0.14111 0 0.21615-0.047 0.075-0.047 0.075-0.1344 0-0.0784-0.0515-0.12095-0.0504-0.0426-0.20272-0.0762l-0.16687-0.037q-0.25088-0.0538-0.36735-0.17136-0.11536-0.11759-0.11536-0.31695 0-0.24976 0.16127-0.38415 0.16128-0.1344 0.46368-0.1344 0.13775 0 0.28335 0.0213 0.1456 0.0202 0.30127 0.0616z" style="font-feature-settings:normal;font-variant-caps:normal;font-variant-ligatures:normal;font-variant-numeric:normal"/>
			<path d="m107.26 132.82h1.5411v0.32591h-0.55439v1.3462h-0.43119v-1.3462h-0.55551z" style="font-feature-settings:normal;font-variant-caps:normal;font-variant-ligatures:normal;font-variant-numeric:normal"/>
			<path d="m109.79 133.1q-0.19712 0-0.30576 0.1456t-0.10864 0.40991q0 0.2632 0.10864 0.40879 0.10864 0.1456 0.30576 0.1456 0.19823 0 0.30687-0.1456 0.10864-0.14559 0.10864-0.40879 0-0.26431-0.10864-0.40991t-0.30687-0.1456zm0-0.31247q0.40319 0 0.63166 0.23072 0.22848 0.23071 0.22848 0.63726 0 0.40543-0.22848 0.63615-0.22847 0.23071-0.63166 0.23071-0.40208 0-0.63167-0.23071-0.22848-0.23072-0.22848-0.63615 0-0.40655 0.22848-0.63726 0.22959-0.23072 0.63167-0.23072z" style="font-feature-settings:normal;font-variant-caps:normal;font-variant-ligatures:normal;font-variant-numeric:normal"/>
			<path d="m110.97 132.82h0.71567q0.31919 0 0.48943 0.14224 0.17135 0.14111 0.17135 0.40319 0 0.26319-0.17135 0.40543-0.17024 0.14112-0.48943 0.14112h-0.28448v0.58015h-0.43119zm0.43119 0.31247v0.46703h0.23856q0.12544 0 0.19376-0.0605 0.0683-0.0616 0.0683-0.17359 0-0.112-0.0683-0.17248-0.0683-0.0605-0.19376-0.0605z" style="font-feature-settings:normal;font-variant-caps:normal;font-variant-ligatures:normal;font-variant-numeric:normal"/>
		</g>
	</g>
</svg>
